<svg xmlns="http://www.w3.org/2000/svg" viewBox="0 0 600 240.84"><defs><style>.cls-1{fill:#fff;}</style></defs><title>logo</title><g id="Layer_2" data-name="Layer 2"><g id="Layer_1-2" data-name="Layer 1"><path class="cls-1" d="M381.48.35c-40.93,0-74,32.66-74,72.79s33.2,72.79,74,72.79,74-32.56,74-72.79S422.4.35,381.48.35Zm0,111c-21.43,0-38.75-17.12-38.75-38.15S360.05,35,381.48,35s38.74,17.12,38.74,38.15S402.85,111.34,381.48,111.34ZM218.23,0c-40.93,0-74,33.45-74,74.72v71.21h35.38V74.72a38.75,38.75,0,1,1,77.49,0v71.21H292.3V74.72C292.3,33.45,259.15,0,218.23,0ZM64.48,75.71A38.56,38.56,0,0,0,61.91,61.9L38,.05H0L42.26,109.46A36.13,36.13,0,0,0,64.48,75.71ZM562,.05,505.73,145.93h38L600,.05ZM511.27,61.91,487.37.1H449.42l42.26,109.41a36.14,36.14,0,0,0,22.17-33.8,37.42,37.42,0,0,0-2.57-13.8ZM112.58.05,19.69,240.84h38L150.53.05Z"/></g></g></svg>